<?xml version="1.0" encoding="UTF-8"?>
<svg id="Layer_1" data-name="Layer 1" xmlns="http://www.w3.org/2000/svg" xmlns:xlink="http://www.w3.org/1999/xlink" viewBox="0 0 427.19 116.15">
  <defs>
    <style>
      .cls-1 {
        fill: url(#linear-gradient-7);
        stroke: url(#linear-gradient-8);
      }

      .cls-1, .cls-2, .cls-3, .cls-4, .cls-5, .cls-6, .cls-7, .cls-8 {
        stroke-miterlimit: 10;
        stroke-width: 2px;
      }

      .cls-2 {
        fill: url(#linear-gradient-9);
        stroke: url(#linear-gradient-10);
      }

      .cls-3 {
        fill: url(#linear-gradient-13);
        stroke: url(#linear-gradient-14);
      }

      .cls-4 {
        fill: url(#linear-gradient-5);
        stroke: url(#linear-gradient-6);
      }

      .cls-5 {
        fill: url(#linear-gradient-11);
        stroke: url(#linear-gradient-12);
      }

      .cls-6 {
        fill: url(#linear-gradient-3);
        stroke: url(#linear-gradient-4);
      }

      .cls-7 {
        fill: url(#linear-gradient);
        stroke: url(#linear-gradient-2);
      }

      .cls-8 {
        fill: url(#linear-gradient-15);
        stroke: url(#linear-gradient-16);
      }
    </style>
    <linearGradient id="linear-gradient" x1="13.21" y1="48.46" x2="346.21" y2="127.53" gradientUnits="userSpaceOnUse">
      <stop offset="0" stop-color="#00aff0"/>
      <stop offset="1" stop-color="#28247b"/>
    </linearGradient>
    <linearGradient id="linear-gradient-2" x1="0" y1="58.44" x2="109.58" y2="58.44" gradientUnits="userSpaceOnUse">
      <stop offset="0" stop-color="#28247b"/>
      <stop offset="1" stop-color="#00aff0"/>
    </linearGradient>
    <linearGradient id="linear-gradient-3" x1="21.75" y1="12.51" x2="354.75" y2="91.59" xlink:href="#linear-gradient"/>
    <linearGradient id="linear-gradient-4" x1="107.01" y1="37.57" x2="145.34" y2="37.57" xlink:href="#linear-gradient-2"/>
    <linearGradient id="linear-gradient-5" x1="19.89" y1="20.35" x2="352.89" y2="99.42" xlink:href="#linear-gradient"/>
    <linearGradient id="linear-gradient-6" x1="136.15" y1="52.95" x2="179.78" y2="52.95" xlink:href="#linear-gradient-2"/>
    <linearGradient id="linear-gradient-7" x1="17.95" y1="28.51" x2="350.95" y2="107.58" xlink:href="#linear-gradient"/>
    <linearGradient id="linear-gradient-8" x1="162.35" y1="71.96" x2="228.04" y2="71.96" xlink:href="#linear-gradient-2"/>
    <linearGradient id="linear-gradient-9" x1="26.69" y1="-8.29" x2="359.69" y2="70.78" xlink:href="#linear-gradient"/>
    <linearGradient id="linear-gradient-10" x1="228.56" y1="49.62" x2="305.59" y2="49.62" xlink:href="#linear-gradient-2"/>
    <linearGradient id="linear-gradient-11" x1="24" y1="3.05" x2="357" y2="82.12" xlink:href="#linear-gradient"/>
    <linearGradient id="linear-gradient-12" x1="283.48" y1="71.25" x2="345.34" y2="71.25" xlink:href="#linear-gradient-2"/>
    <linearGradient id="linear-gradient-13" x1="31.1" y1="-26.88" x2="364.1" y2="52.2" xlink:href="#linear-gradient"/>
    <linearGradient id="linear-gradient-14" x1="346.22" y1="52.95" x2="389.86" y2="52.95" xlink:href="#linear-gradient-2"/>
    <linearGradient id="linear-gradient-15" x1="34.77" y1="-42.33" x2="367.77" y2="36.75" xlink:href="#linear-gradient"/>
    <linearGradient id="linear-gradient-16" x1="391.06" y1="46.26" x2="427.19" y2="46.26" xlink:href="#linear-gradient-2"/>
  </defs>
  <path class="cls-7" d="m69.21,14.28h-7.35c-3.92,0-5.88-1.68-5.88-5.04,0-2.1.8-3.88,2.42-5.33,1.61-1.45,3.57-2.18,5.88-2.18h22.73c6.9,0,12.22,1.51,15.96,4.54,3.75,3.03,5.62,7.34,5.62,12.94,0,4.83-1.41,9.17-4.23,13.02-2.82,3.85-6.59,6.6-11.31,8.24,6.41,3.12,9.61,8.47,9.61,16.07,0,4.87-1.32,9.63-3.96,14.31-2.64,4.67-6.13,8.41-10.48,11.21-5.85,3.78-14.67,5.67-26.46,5.67h-7.72l-.63,1.47c-2.45,5.43-4.38,9.26-5.78,11.5-1.4,2.24-3.2,4.38-5.41,6.41-5.85,5.36-12.51,8.03-20,8.03-6.13,0-11.19-1.82-15.2-5.46-4.01-3.64-6.01-8.28-6.01-13.91,0-3.61.86-6.96,2.57-10.06,1.72-3.1,4.04-5.5,6.98-7.22,3.81-2.21,9-3.31,15.54-3.31h18.32l24.78-60.91Zm-29.88,73.46h-13.65c-6.86,0-10.29,2.45-10.29,7.35,0,1.96.74,3.62,2.23,4.99,1.49,1.37,3.3,2.05,5.43,2.05,3.19,0,6.21-1.27,9.08-3.81,2.87-2.54,5.27-6.06,7.19-10.58Zm19.85-12.55h4.25c7.49,0,13.18-1.3,17.06-3.89,2.48-1.65,4.51-3.9,6.06-6.77,1.56-2.87,2.34-5.76,2.34-8.66,0-3.43-1.02-5.85-3.07-7.25-2.05-1.4-5.61-2.1-10.69-2.1h-4.36l-11.6,28.67Zm16.7-41.22l3.15-.05c4.9,0,8.61-1.14,11.13-3.41,1.33-1.19,2.44-2.73,3.33-4.62s1.34-3.64,1.34-5.25c0-2.91-1.28-4.83-3.83-5.78-1.02-.38-3.12-.58-6.3-.58h-.79l-8.03,19.69Z"/>
  <path class="cls-6" d="m122.55,61.96h5.51c4.45,0,6.67,1.56,6.67,4.67,0,2.14-.78,3.8-2.34,4.99-1.56,1.19-3.74,1.79-6.54,1.79h-9.45c-2.59,0-4.64-.61-6.14-1.84-1.51-1.22-2.26-2.87-2.26-4.94,0-1.08.51-2.89,1.52-5.41l21.21-52.19.58-1.42c1.61-3.92,4.18-5.88,7.72-5.88,1.47,0,2.72.49,3.75,1.47,1.03.98,1.55,2.15,1.55,3.52,0,1.05-.26,2.24-.79,3.57l-.58,1.42-20.42,50.25Z"/>
  <path class="cls-4" d="m161.35,32.5c5.08,0,9.25,1.61,12.52,4.83,3.27,3.22,4.91,7.32,4.91,12.29,0,3.75-.86,7.46-2.57,11.16-1.72,3.69-3.94,6.64-6.67,8.85-1.82,1.44-3.7,2.42-5.64,2.97-1.94.54-4.67.81-8.17.81-5.71,0-9.56-.68-11.55-2.05-4.69-3.22-7.04-7.98-7.04-14.28,0-6.65,2.4-12.41,7.19-17.27,4.8-4.87,10.47-7.3,17.01-7.3Zm-1.26,11.18c-2.59,0-4.95,1.28-7.09,3.83-2.14,2.56-3.2,5.37-3.2,8.45,0,4.06,2.27,6.09,6.83,6.09,2.66,0,4.71-.82,6.14-2.47,2.38-2.69,3.57-5.78,3.57-9.24,0-2-.58-3.6-1.73-4.83-1.16-1.23-2.66-1.84-4.52-1.84Z"/>
  <path class="cls-1" d="m212.49,74.88h6.3c4.44,0,6.67,1.54,6.67,4.62,0,2.13-.79,3.81-2.36,5.01s-3.75,1.81-6.51,1.81h-8.72l-2.21,5.41c-5.36,13.13-13.18,19.69-23.47,19.69-5.39,0-9.88-1.66-13.47-4.99-3.59-3.33-5.38-7.49-5.38-12.5,0-3.26.87-6.31,2.6-9.16,1.73-2.85,4.1-5.12,7.11-6.8,3.71-2.07,8.7-3.1,14.96-3.1h11.29l1.63-4.1c-2.21,1.33-4.29,2-6.25,2-3.75,0-6.78-1.29-9.11-3.89-2.33-2.59-3.49-5.97-3.49-10.13,0-6.72,2.36-12.78,7.09-18.17,4.73-5.39,10.03-8.09,15.91-8.09,4.31,0,7.53,1.4,9.66,4.2,1.64-2.8,3.97-4.2,6.98-4.2,1.47,0,2.72.48,3.75,1.44,1.03.96,1.55,2.13,1.55,3.49,0,1.09-.46,2.75-1.37,4.99l-13.18,32.45Zm-17.85,11.45h-9.08c-3.15,0-5.59.66-7.32,2-1.73,1.33-2.6,3.2-2.6,5.62,0,1.65.6,3.05,1.79,4.2,1.19,1.16,2.66,1.73,4.41,1.73,2.52,0,4.73-1,6.62-2.99s3.96-5.51,6.2-10.55Zm11.03-27.2l4.25-10.4c.35-.87.53-1.59.53-2.15,0-1.05-.46-1.92-1.39-2.62-.93-.7-2.09-1.05-3.49-1.05-2.52,0-4.93,1.44-7.22,4.33-2.29,2.89-3.44,5.94-3.44,9.16,0,3.68,1.71,5.51,5.15,5.51,2.98,0,4.85-.93,5.62-2.78Z"/>
  <path class="cls-2" d="m274.45,37.54l4.83,6.09,2.78,3.36c5.39,6.65,8.08,13.69,8.08,21.11s-2.38,13.53-7.14,18.95c-6.51,7.46-15.03,11.18-25.57,11.18-8.16,0-14.84-2.51-20.06-7.53-5.22-5.02-7.82-11.46-7.82-19.3,0-9.59,4.06-17.59,12.18-24,4.31-3.4,8.28-5.09,11.92-5.09,1.89,0,3.43.54,4.62,1.63,1.19,1.09,1.79,2.49,1.79,4.2,0,2.31-1.37,4.31-4.1,5.99l-4.2,2.57c-2.42,1.51-4.43,3.61-6.04,6.3-1.61,2.7-2.42,5.36-2.42,7.98,0,4.17,1.41,7.6,4.23,10.32,2.82,2.71,6.4,4.07,10.74,4.07,4.79,0,8.96-1.79,12.5-5.38,3.54-3.59,5.3-7.81,5.3-12.68,0-3.08-.72-5.88-2.15-8.4-1.44-2.52-4.53-6.42-9.29-11.71-3.33-3.68-5.71-6.9-7.14-9.66h-14.18c-4.83,0-7.25-1.66-7.25-4.99,0-2.42.85-4.28,2.55-5.59,1.7-1.31,4.09-1.97,7.17-1.97h8.98c.7-6.93,3.87-12.66,9.5-17.2,5.63-4.53,12.39-6.8,20.27-6.8,5.92,0,10.74,1.63,14.46,4.88s5.59,7.47,5.59,12.65c0,6.9-2.96,12.18-8.87,15.86-3.36,2.1-8.7,3.15-16.01,3.15h-5.25Zm-6.3-12.55h12.6c7.11,0,10.66-2.06,10.66-6.2,0-1.61-.73-2.91-2.18-3.89-1.45-.98-3.39-1.47-5.8-1.47-3.78,0-7.22,1.17-10.32,3.52-3.1,2.35-4.75,5.02-4.96,8.03Z"/>
  <path class="cls-5" d="m311.57,69.31l-13.7,33.71c-1.89,4.65-4.66,6.98-8.3,6.98-1.4,0-2.6-.46-3.6-1.39-1-.93-1.5-2.04-1.5-3.33,0-1.09.44-2.73,1.31-4.94l25.31-62.38c1.29-3.15,3.54-4.73,6.72-4.73,2.21,0,3.96,1.05,5.25,3.15,2.45-2.59,5.44-3.89,8.98-3.89s6.64,1.39,8.9,4.17c2.26,2.78,3.39,6.45,3.39,11,0,8.61-2.68,15.63-8.03,21.06-1.75,1.79-3.55,3.01-5.41,3.68-1.86.67-4.45,1-7.77,1-3.57,0-6.03-.24-7.38-.73s-2.74-1.61-4.17-3.36Zm4.31-10.71c.87,1.54,1.71,2.54,2.49,2.99.79.46,2.04.68,3.75.68,2.49,0,4.43-.93,5.83-2.78,2.83-3.75,4.25-7.6,4.25-11.55,0-3.4-1.61-5.09-4.83-5.09-3.54,0-6.07,2.05-7.61,6.14-.17.46-.31.84-.42,1.15l-3.46,8.45Z"/>
  <path class="cls-3" d="m371.43,32.5c5.07,0,9.25,1.61,12.52,4.83,3.27,3.22,4.91,7.32,4.91,12.29,0,3.75-.86,7.46-2.57,11.16-1.71,3.69-3.94,6.64-6.67,8.85-1.82,1.44-3.7,2.42-5.64,2.97-1.94.54-4.67.81-8.17.81-5.71,0-9.56-.68-11.55-2.05-4.69-3.22-7.04-7.98-7.04-14.28,0-6.65,2.4-12.41,7.19-17.27,4.8-4.87,10.47-7.3,17.01-7.3Zm-1.26,11.18c-2.59,0-4.95,1.28-7.09,3.83-2.14,2.56-3.2,5.37-3.2,8.45,0,4.06,2.27,6.09,6.83,6.09,2.66,0,4.71-.82,6.14-2.47,2.38-2.69,3.57-5.78,3.57-9.24,0-2-.58-3.6-1.73-4.83-1.16-1.23-2.66-1.84-4.52-1.84Z"/>
  <path class="cls-8" d="m417.9,33.24h1.63c4.44,0,6.67,1.56,6.67,4.67,0,2.14-.79,3.8-2.36,4.99-1.57,1.19-3.75,1.79-6.51,1.79h-3.83l-7.04,17.27h5.88c4.44,0,6.67,1.56,6.67,4.67,0,2.14-.78,3.8-2.34,4.99-1.56,1.19-3.74,1.79-6.54,1.79h-9.4c-2.66,0-4.77-.61-6.33-1.84-1.56-1.22-2.34-2.89-2.34-4.99,0-1.29.32-2.73.95-4.31l1-2.31,6.2-15.28h-.79c-3.92,0-5.88-1.52-5.88-4.57,0-2.17.78-3.86,2.34-5.07s3.74-1.81,6.54-1.81h2.42l2.78-6.88.58-1.42c1.65-3.89,4.24-5.83,7.77-5.83,1.43,0,2.67.48,3.7,1.44,1.03.96,1.55,2.13,1.55,3.49s-.46,3.01-1.37,5.04l-1.94,4.15Z"/>
</svg>